<svg id="Layer_1" data-name="Layer 1" xmlns="http://www.w3.org/2000/svg" viewBox="0 0 540.15 119.05"><defs><style>.cls-1{fill:#010101;fill-rule:evenodd;}</style></defs><title>Artboard 2</title><path class="cls-1" d="M122.88,23c-4.15-3.08-5.15-7.72-9.41-11-18-13.76-40.76.75-41.83,21.44C70.41,57,87.35,79,110.85,74.25c10.72-2.14,13.8-10.2,20.4-18.3.14,3.13-1.92,8.1-3.67,12.55-1.65,4.22-3.89,8.78-5.22,12.55-8.44-1.44-14.34.93-22.49.52C75,80.32,58,64.48,58,37.13,58,16.64,69.53,2.26,89.41.52c7.91-.69,15.51,1.34,25.1,1.05,1.07-.5,2.07-1.07,3.14-1.57A112.86,112.86,0,0,1,122.88,23Z"/><path class="cls-1" d="M189.29,0c2.86,7.25,5,18,6.27,25.1-3.28-1.2-3.54-4.8-5.75-7.32C183.2,10.25,171,5.84,159,9.41c-2.79,2.61-2,8.83-2.09,14.12,9.8.91,20.55,0,20.91-6.8,2.94,1.53,2.37,8.27,3.14,13.08S183.7,40,182.49,43.92c-3.94-9.13-10.16-16-25.62-13.59,2.82,11.44-4.47,33.64,1.57,41.31,2.53,3.22,9.8,3,14.11,2.61,10.17-1,18.46-7.64,23.53-14.64,2.2-3,2.47-7.45,6.28-8.89C199.64,61.24,196,70.85,193,81.05c-16.41-2.71-40.89.27-56.48-1.57.31-2.52,4.9-2.16,6.28-5.23,2.69-6,.52-20.92.52-32.94,0-16.53,3.34-35.11-6.8-38.17C148.64-.45,180.39,5.25,189.29,0Z"/><path class="cls-1" d="M469.56,1.57c1.49,7.92,3.33,15.49,4.7,23.53-3.62-1.55-4-5.4-6.27-8.37-5.31-6.88-16.26-12.64-27.71-8.89-4.81,1.58-7.45,4.36-7.33,8.37.26,8.5,13.63,9.44,22,12,7.86,2.43,18.08,6.19,22.48,11,10.54,11.48,4.48,29.44-7.32,37.12-6.54,4.26-15.05,5.6-23,5.23-8.54-.39-16.76-5.07-22.48-2.09-1.78-9.72-4.94-20.86-5.75-29.8,3.62,2.5,3.72,5.94,5.22,8.88,1.36,2.66,2.71,5.78,5.23,8.37,10.51,10.78,36.08,11.27,40.79-4.18,8.48-27.84-46.62-17.3-48.63-41.31-1.1-13.1,9-19.64,19.35-20.92C451.29-.77,461.69,4.28,469.56,1.57Z"/><path class="cls-1" d="M214.91,1.05c16.3,2.35,36.88.41,54.9,1-6.27,13.08-15.14,24.34-23,36.08s-15.11,23.74-23,35.56c24.92,1.74,39.17-7.19,47.58-22,.55,3.93-2.46,9.23-4.18,14.12C265.39,71,263.7,76.45,262,81.05c-15.06-2.79-39,.35-56.47-1.57,14.46-24.57,31-47.09,46-71.11C235.09,7.83,223,8.48,216,17.26c-2.51,3.15-2,7.22-6.27,9.41C211.15,17.86,213.31,9.73,214.91,1.05Z"/><path class="cls-1" d="M298.05,2.09c8,.35,17.43-.69,24.57.52-.22,1.89-2.74,2.57-3.13,4.71-.65,3.55,3.44,12.45,5.23,17.78,3.89,11.59,7.26,22,11.5,34,2.11,6,3.45,12.89,6.27,16.21,1.34,1.57,5.08,2.73,5.23,4.18a140.22,140.22,0,0,1-26.66,0c1.5-3.5,5-3.21,5.22-7.84.86-14.81-16-25.39-30.32-26.15-2.19,9.78-15.26,26.92-3.14,33.47-4,1.85-16.48,1.08-22.48.52.5-2.36,4.91-3.79,6.79-6.28,5.39-7.11,8.52-20.63,12.55-31.89,1.94-5.4,3.56-10.51,5.75-16.73,1.79-5.08,6-12.89,5.76-16.21C301,5.85,298.1,4.41,298.05,2.09Zm0,37.13c8.48.75,15.43,3,20.39,7.32-4-11.21-6.86-23.47-12-33.47C304.23,22.39,300.27,29.94,298.05,39.22Z"/><path class="cls-1" d="M393.22,33.47c12.21,12.18,15.53,33.26,27.18,46a120.61,120.61,0,0,1-24.57,0c.38-2.93,3.54-2.72,4.18-5.23,1.48-5.74-4.14-14.69-7.32-19.87-4-6.53-8.59-11.77-11.5-15.69a45.1,45.1,0,0,1-12,3.67c1.53,13.11-4.66,33.93,7.32,36.6-5.66,2-21.19,1-27.71.52,1.43-2.38,6-2.91,6.8-8.37,1.05-7.54,0-19.21,0-31.89,0-17.35,3.18-33.07-6.8-36.08,12,0,51.86-5.44,58.56,3.66C415.06,17.29,402.14,29.36,393.22,33.47Zm2.09-12.55c3.57-12.78-12.82-14.88-24.58-11-3.21,6.19-.84,18-1.57,26.66C378.84,32.67,392.61,30.56,395.31,20.92Z"/><path class="cls-1" d="M207.07,99.87h4.18a60.89,60.89,0,0,0,0,17.78c-.39,1.18-2.93.21-4.18.52C207.28,113.47,206.92,106.11,207.07,99.87Z"/><path class="cls-1" d="M288.64,100.4c.55-1.19,3.28-.2,4.7-.53-1,1.41-.31,4.57-.52,6.8,1.24,1.2,4.69.19,6.8.53-.06-2.56.28-5.52-.53-7.33h4.19c-.79,4.8-.94,13,0,17.78-.39,1.18-2.94.21-4.19.52.85-1.94.44-5.14.53-7.84-1.24-1.2-4.7-.19-6.8-.52.34,2.45-.68,6.26.52,7.84-.55,1.19-3.28.2-4.7.52A61.17,61.17,0,0,0,288.64,100.4Z"/><path class="cls-1" d="M321.58,100.4c2.1-1.21,6.44-.18,9.41-.53V103c-.87-.87-3.07-.41-4.71-.52-1.17.39-.2,2.93-.52,4.18.39,1.18,2.93.21,4.19.53v2.08c.34,2-2.43-.25-4.19.53v5.75c1.76-.33,4.86.67,5.75-.52.91,5.22-5.08,3-9.93,3.13A61.17,61.17,0,0,0,321.58,100.4Z"/><path class="cls-1" d="M349.29,99.87H353c3.06,4.09,5.31,9,8.89,12.55,0-4.33.22-8.94-.52-12.55H365v18.3c-7.52-.66-7-9.36-12-12.54.35,3.83-.69,9.05.53,12-.39,1.18-2.94.21-4.19.52A66,66,0,0,0,349.29,99.87Z"/><path class="cls-1" d="M165.23,104.58c2.32,1,.44,6.19,1.05,8.89q-81.21-2.72-163.14-4.71H0c.16-.71,1.31-.43,2.09-.52H17.78C66.35,106.43,116.56,106.27,165.23,104.58Z"/><path class="cls-1" d="M374.91,104.58c53.61,1.86,112.65,2,165.24,4.18-55.69,1.13-110.72,2.92-165.76,4.71v-7.32C374.35,105.4,374.3,104.67,374.91,104.58Z"/><path class="cls-1" d="M480.54,3.66V11.5c2.31-.82.44-5.83,1-8.36,1.08-.32,3.64.84,3.14-1.05H477.4C476.66,4.4,480.53,2.1,480.54,3.66Z"/><path class="cls-1" d="M486.29,11.5c1.54-1.07-.5-5.72,1-6.79.32,2.64,1.34,4.59,2.1,6.79,2.73-.57,2-4.63,3.66-6.27.53,2.08-.32,5.54,1.57,6.27-.39-1.19,1.4-9.06-1.57-9.41C491.46,3.78,491.35,7,490,8.89c-1-2.13-1.42-4.86-2.62-6.8h-1.56C486.67,5.41,483.55,9.78,486.29,11.5Z"/><path class="cls-1" d="M226.94,103a21.86,21.86,0,0,1,6.27-.52c-.12,5.28.37,11.17-.52,15.68h4.18c-1.1-4.29-.26-10.54-.52-15.68,1.92-.17,4.63.45,5.75-.52-.43-1.48.74-1.36.52-2.62C238.31,101.48,227.24,96.86,226.94,103Z"/><path class="cls-1" d="M260.4,100.4c-8.68,5.13-1.93,24.8,10.46,16.73V114c-7.69,8-16.58-8.91-7.32-11.5,3.19-.89,6,1.73,6.8.52C271.65,97.92,263.47,98.59,260.4,100.4Z"/><path class="cls-1" d="M175.69,118.17c1.25-.31,3.79.66,4.18-.52-.77-1.15-1.19-6.4.53-6.79,3,2.15,6.44,11.07,10.45,5.74-2.48-2.68-8.55-5.2-8.36-8.36s6.11-3.45,6.8-7.32c-4.68-2.89-6.69,4.88-9.94,6.8.24-2.55-.55-6.13.52-7.85h-4.18Z"/></svg>